<svg xmlns="http://www.w3.org/2000/svg" viewBox="0 0 320 96.965">
  <defs>
    <style>
      .cls-1 {
        fill: #252525;
      }
    </style>
  </defs>
  <path id="Logo" class="cls-1" d="M60.018,96.965l13.9-24.247q.428-.752,2.37-3.986A39.47,39.47,0,0,1,79.3,64.206q-3.987,3.557-11.529,3.556a24.05,24.05,0,0,1-12.66-3.339q-.876-.527-1.689-1.116a24.385,24.385,0,0,1-12.8,14.057,37.456,37.456,0,0,1-16.7,3.448,50.1,50.1,0,0,1-13.846-1.994Q3.123,76.826,0,73.7L5.063,63.464a30.213,30.213,0,0,0,8.191,4.473,28.234,28.234,0,0,0,10.128,1.886q18.425,0,18.426-14.979A12.319,12.319,0,0,0,36.8,44.609q-5.008-3.879-13.522-3.88a65.578,65.578,0,0,0-10.019.647L33.081,10.56H3.339V0H54.523L32.11,32a25.293,25.293,0,0,1,12.013,3.232l.14.081A23.876,23.876,0,0,1,56.947,19.7a32.479,32.479,0,0,1,14.815-3.232,28.259,28.259,0,0,1,13.362,3.18,23.548,23.548,0,0,1,9.535,9.213,27.411,27.411,0,0,1,3.5,14.008,35.968,35.968,0,0,1-1.4,10.019q-1.4,4.848-6.465,14.764T74.026,96.965Zm-.055-65.677a15.521,15.521,0,0,0-4.147,11.151q0,7.006,4.308,10.991a14.973,14.973,0,0,0,10.56,3.986,15.208,15.208,0,0,0,10.829-3.985q4.252-3.984,4.256-10.883a15.557,15.557,0,0,0-4.2-11.26,14.04,14.04,0,0,0-10.558-4.364Q64.109,26.923,59.963,31.287ZM283.473,64.8a21.471,21.471,0,0,1-8.727-9.374,29.473,29.473,0,0,1-2.8-12.876,27.988,27.988,0,0,1,3.285-13.792,22.683,22.683,0,0,1,9.107-9.1,26.987,26.987,0,0,1,13.145-3.18q11.419,0,16.97,6.3T320,40.5a59.316,59.316,0,0,1-.321,6.034H284.122q1.182,6.575,4.686,9.484t9.753,2.908a34.859,34.859,0,0,0,8.514-.862,27.3,27.3,0,0,0,6.141-2.371l3.556,8.3a27.512,27.512,0,0,1-7.327,3.016A42.128,42.128,0,0,1,298.238,68.3Q289.4,68.3,283.473,64.8Zm.649-26.344h24.567q.1-6.682-2.912-9.428t-8.62-2.748Q285.845,26.277,284.122,38.454Zm-98.359,26.4a24.174,24.174,0,0,1-6.653-5.633,24.2,24.2,0,0,1-6.6,5.633A26.208,26.208,0,0,1,158.982,68.3a26.483,26.483,0,0,1-13.576-3.448,23.917,23.917,0,0,1-9.16-9.373,27,27,0,0,1-3.232-13.144,27.114,27.114,0,0,1,3.18-13.039,23.539,23.539,0,0,1,9.1-9.374,26.7,26.7,0,0,1,13.683-3.449,26.406,26.406,0,0,1,13.632,3.449,23.9,23.9,0,0,1,6.5,5.531,23.888,23.888,0,0,1,6.546-5.531,26.693,26.693,0,0,1,13.683-3.449,26.411,26.411,0,0,1,13.632,3.449,23.669,23.669,0,0,1,9.051,9.374,27.136,27.136,0,0,1,3.18,13.039,26.994,26.994,0,0,1-3.232,13.144,24.028,24.028,0,0,1-9.1,9.373A26.2,26.2,0,0,1,199.34,68.3,26.486,26.486,0,0,1,185.763,64.852Zm3.394-34.159a18.635,18.635,0,0,0-3.717,11.853,17.255,17.255,0,0,0,3.986,11.583,12.827,12.827,0,0,0,10.237,4.686,11.814,11.814,0,0,0,9.86-4.631,18.369,18.369,0,0,0,3.61-11.637,18.161,18.161,0,0,0-3.879-11.8,12.521,12.521,0,0,0-10.236-4.8A11.909,11.909,0,0,0,189.156,30.693Zm-40.356,0a18.63,18.63,0,0,0-3.717,11.853,17.246,17.246,0,0,0,3.987,11.583A12.824,12.824,0,0,0,159.3,58.815a11.809,11.809,0,0,0,9.859-4.631,18.357,18.357,0,0,0,3.61-11.637,18.16,18.16,0,0,0-3.878-11.8,12.523,12.523,0,0,0-10.235-4.8A11.91,11.91,0,0,0,148.8,30.693Zm98.692,36.53L221.417,17.766H234.67l10.668,22.3,3.448,8.942,3.448-8.942,10.559-22.3h12.93L249.756,67.223Zm-144.586,0V17.766h11.637v9.7a16.843,16.843,0,0,1,5.6-7.975,14.01,14.01,0,0,1,8.836-3.017,11.861,11.861,0,0,1,4.74.647l-1.616,11.745q-.969-.648-4.2-.647a14.633,14.633,0,0,0-9.214,3.234q-4.147,3.23-4.146,10.343V67.222Z"/>
</svg>
