<svg xmlns="http://www.w3.org/2000/svg" viewBox="0 0 152 24">
  <defs>
    <style>
      .cls-1 {
        fill: rgba(255,255,255,0);
        stroke: #b89031;
      }

      .cls-2 {
        fill: #e4e4e4;
      }

      .cls-3 {
        fill: #b89031;
      }

      .cls-4 {
        stroke: none;
      }

      .cls-5 {
        fill: none;
      }
    </style>
  </defs>
  <g transform="translate(-41 -1954)">
    <g class="cls-1" transform="translate(41 1954)">
      <rect class="cls-4" width="152" height="24" rx="8"/>
      <rect class="cls-5" x="0.5" y="0.5" width="151" height="23" rx="7.5"/>
    </g>
    <g transform="translate(53 1960)">
      <path class="cls-2" d="M94.33,126.5a8.562,8.562,0,0,0,8.62-8.62c0-.132,0-.264-.006-.39a6.207,6.207,0,0,0,1.514-1.571,6.149,6.149,0,0,1-1.74.477,3.028,3.028,0,0,0,1.332-1.677,6.135,6.135,0,0,1-1.923.735,3.031,3.031,0,0,0-5.24,2.073,2.776,2.776,0,0,0,.082.691,8.594,8.594,0,0,1-6.245-3.166,3.028,3.028,0,0,0,.942,4.04,2.976,2.976,0,0,1-1.37-.377v.038a3.033,3.033,0,0,0,2.431,2.972,3.02,3.02,0,0,1-.8.107,2.892,2.892,0,0,1-.572-.057,3.025,3.025,0,0,0,2.827,2.1,6.09,6.09,0,0,1-3.763,1.294,5.51,5.51,0,0,1-.723-.044,8.441,8.441,0,0,0,4.63,1.37" transform="translate(-89.7 -114.5)"/>
    </g>
    <path class="cls-3" d="M1.248-11.76H4.08q3.552,0,4.968,1.68a6.006,6.006,0,0,1,1.416,4A7.264,7.264,0,0,1,9.856-3.1,4.98,4.98,0,0,1,7.848-.864,6.918,6.918,0,0,1,4.176,0H1.248ZM4.368-1.584A3.856,3.856,0,0,0,7.576-2.84a4.914,4.914,0,0,0,1-3.16A4.464,4.464,0,0,0,7.568-9.024a4.01,4.01,0,0,0-3.2-1.168H3.04v8.608Zm7.9-5.76h1.792V0H12.272Zm.048-1.712a1.13,1.13,0,0,1-.336-.832,1.023,1.023,0,0,1,.336-.768,1.16,1.16,0,0,1,.832-.32,1.14,1.14,0,0,1,.816.32,1.023,1.023,0,0,1,.336.768,1.144,1.144,0,0,1-.328.832,1.1,1.1,0,0,1-.824.336A1.13,1.13,0,0,1,12.32-9.056ZM17.4-.04a3.254,3.254,0,0,1-1.176-.472l.576-1.36a3.729,3.729,0,0,0,2.192.672q1.232,0,1.232-.72a.567.567,0,0,0-.256-.5,4.5,4.5,0,0,0-.912-.416l-.608-.224a4.7,4.7,0,0,1-1.52-.92,1.87,1.87,0,0,1-.56-1.416,1.831,1.831,0,0,1,.792-1.576,3.566,3.566,0,0,1,2.12-.568,5.779,5.779,0,0,1,1.288.144,2.96,2.96,0,0,1,.968.368l-.624,1.376a1.7,1.7,0,0,0-.664-.36,3.2,3.2,0,0,0-1.016-.152q-1.136,0-1.136.688a.655.655,0,0,0,.3.584,4.817,4.817,0,0,0,.992.44q.064.016.5.176a4.267,4.267,0,0,1,1.52.912,1.808,1.808,0,0,1,.5,1.312A1.865,1.865,0,0,1,21.08-.4a3.636,3.636,0,0,1-2.088.56A6.743,6.743,0,0,1,17.4-.04Zm7.76-.272a3.5,3.5,0,0,1-1.384-1.36,4.108,4.108,0,0,1-.512-2.088,4.059,4.059,0,0,1,.472-1.992,3.263,3.263,0,0,1,1.328-1.32,4.081,4.081,0,0,1,1.976-.464A4.435,4.435,0,0,1,28.5-7.32a2.806,2.806,0,0,1,.968.536L28.7-5.392a2.1,2.1,0,0,0-1.52-.672,1.944,1.944,0,0,0-1.56.624,2.466,2.466,0,0,0-.536,1.664,2.776,2.776,0,0,0,.552,1.84,1.908,1.908,0,0,0,1.544.656,3.3,3.3,0,0,0,.968-.144,2.385,2.385,0,0,0,.728-.336L29.5-.544a3.441,3.441,0,0,1-.984.488,4.308,4.308,0,0,1-1.4.216A4.05,4.05,0,0,1,25.16-.312Zm7.4-.04A3.553,3.553,0,0,1,31.2-1.744,4.009,4.009,0,0,1,30.72-3.7a4.031,4.031,0,0,1,.472-1.936,3.5,3.5,0,0,1,1.352-1.392,3.966,3.966,0,0,1,2.032-.512,3.923,3.923,0,0,1,2.024.512,3.513,3.513,0,0,1,1.344,1.392A4.031,4.031,0,0,1,38.416-3.7a4.009,4.009,0,0,1-.48,1.952A3.569,3.569,0,0,1,36.584-.352,3.891,3.891,0,0,1,34.576.16,3.935,3.935,0,0,1,32.56-.352Zm3.528-1.584a2.727,2.727,0,0,0,.536-1.728,2.7,2.7,0,0,0-.576-1.752,1.859,1.859,0,0,0-1.52-.712,1.768,1.768,0,0,0-1.464.7,2.765,2.765,0,0,0-.552,1.76,2.563,2.563,0,0,0,.592,1.72,1.905,1.905,0,0,0,1.52.7A1.756,1.756,0,0,0,36.088-1.936Zm4.624,1.2a4.65,4.65,0,0,1-.568-2.5V-7.344h1.728v3.68a7.412,7.412,0,0,0,.1,1.416,1.2,1.2,0,0,0,.416.744,1.522,1.522,0,0,0,.936.24,1.626,1.626,0,0,0,.864-.256,2.024,2.024,0,0,0,.68-.7,1.846,1.846,0,0,0,.264-.968v-4.16h1.712V0H45.44l-.192-1.072a2.556,2.556,0,0,1-1,.928A3.173,3.173,0,0,1,42.8.16,2.278,2.278,0,0,1,40.712-.736Zm8.44-6.608h1.7L50.864-6a2.582,2.582,0,0,1,.96-1.1,2.729,2.729,0,0,1,1.536-.432,2.794,2.794,0,0,1,1.744.472,2.3,2.3,0,0,1,.816,1.32,9.555,9.555,0,0,1,.208,2.208V0H54.4V-3.488A5.364,5.364,0,0,0,54.128-5.5a1.1,1.1,0,0,0-1.12-.616,1.9,1.9,0,0,0-.976.3,2.357,2.357,0,0,0-.824.856,2.549,2.549,0,0,0-.328,1.312V0H49.152Zm9.84,1.408H57.7V-7.344h1.3v-2.992l1.744-.384v3.376h1.7v1.408h-1.7V0H58.992Zm11.12-4.256H67.1V-11.76h7.824v1.568h-3.04V0H70.112ZM80.064-4.08,77.888,0h-.3L74.5-7.344h1.856l1.584,4.272,2.1-4.272H80.1L82.208-3.1l1.584-4.24h1.824L82.544,0h-.3ZM87.888-.36a3.193,3.193,0,0,1-1.3-1.392,4.383,4.383,0,0,1-.416-1.912,4.154,4.154,0,0,1,.488-2.048,3.366,3.366,0,0,1,1.352-1.352,4,4,0,0,1,1.952-.472,3.184,3.184,0,0,1,2.52.936,3.853,3.853,0,0,1,.824,2.632,8.713,8.713,0,0,1-.048.9h-5.28a2.29,2.29,0,0,0,.7,1.408,2.2,2.2,0,0,0,1.448.432,5.181,5.181,0,0,0,1.264-.128,4.05,4.05,0,0,0,.912-.352L92.832-.48a4.078,4.078,0,0,1-1.088.448A6.259,6.259,0,0,1,90.08.16,4.248,4.248,0,0,1,87.888-.36Zm3.744-3.912a1.788,1.788,0,0,0-.432-1.4,1.835,1.835,0,0,0-1.28-.408,1.815,1.815,0,0,0-1.936,1.808ZM96.4-.36a3.193,3.193,0,0,1-1.3-1.392,4.383,4.383,0,0,1-.416-1.912,4.154,4.154,0,0,1,.488-2.048,3.366,3.366,0,0,1,1.352-1.352,4,4,0,0,1,1.952-.472A3.184,3.184,0,0,1,101-6.6a3.853,3.853,0,0,1,.824,2.632,8.711,8.711,0,0,1-.048.9H96.5a2.29,2.29,0,0,0,.7,1.408,2.2,2.2,0,0,0,1.448.432A5.181,5.181,0,0,0,99.9-1.36a4.05,4.05,0,0,0,.912-.352l.528,1.232a4.078,4.078,0,0,1-1.088.448A6.259,6.259,0,0,1,98.592.16,4.248,4.248,0,0,1,96.4-.36Zm3.744-3.912a1.788,1.788,0,0,0-.432-1.4,1.835,1.835,0,0,0-1.28-.408A1.815,1.815,0,0,0,96.5-4.272Zm4.128-1.664h-1.3V-7.344h1.3v-2.992l1.744-.384v3.376h1.7v1.408h-1.7V0h-1.744Z" transform="translate(73 1972)"/>
  </g>
</svg>
