<svg xmlns="http://www.w3.org/2000/svg" viewBox="0 0 40 40">
  <defs>
    <style>
      .cls-1 {
        fill: #1da1f2;
      }

      .cls-2 {
        fill: #fff;
      }
    </style>
  </defs>
  <g >
    <circle class="cls-1" cx="20" cy="20" r="20"/>
  </g>
  <g transform="translate(8.97 11.45)">
    <path class="cls-2" d="M97.07,133.6a13.628,13.628,0,0,0,13.72-13.72c0-.21,0-.42-.01-.62a9.88,9.88,0,0,0,2.41-2.5,9.788,9.788,0,0,1-2.77.76,4.819,4.819,0,0,0,2.12-2.67,9.765,9.765,0,0,1-3.06,1.17,4.825,4.825,0,0,0-8.34,3.3,4.419,4.419,0,0,0,.13,1.1,13.679,13.679,0,0,1-9.94-5.04,4.82,4.82,0,0,0,1.5,6.43,4.737,4.737,0,0,1-2.18-.6v.06A4.827,4.827,0,0,0,94.52,126a4.807,4.807,0,0,1-1.27.17,4.6,4.6,0,0,1-.91-.09,4.815,4.815,0,0,0,4.5,3.35,9.693,9.693,0,0,1-5.99,2.06,8.768,8.768,0,0,1-1.15-.07,13.435,13.435,0,0,0,7.37,2.18" transform="translate(-89.7 -114.5)"/>
  </g>
</svg>
